<?xml version="1.0" encoding="UTF-8" standalone="no"?> <!-- Created with Vectornator for iOS (http://vectornator.io/) --><!DOCTYPE svg PUBLIC "-//W3C//DTD SVG 1.1//EN" "http://www.w3.org/Graphics/SVG/1.1/DTD/svg11.dtd">
<svg style="fill-rule:evenodd;clip-rule:evenodd;stroke-linecap:round;stroke-linejoin:round;" xmlns:vectornator="http://vectornator.io" xmlns:xlink="http://www.w3.org/1999/xlink" xmlns="http://www.w3.org/2000/svg" xml:space="preserve" version="1.1" viewBox="0 0 1024 1024">
<metadata>
<vectornator:setting key="DisplayWhiteBackground" value="0"/>
<vectornator:setting key="RulersVisible" value="1"/>
<vectornator:setting key="GridSpacing" value="36"/>
<vectornator:setting key="Units" value="Pixels"/>
<vectornator:setting key="DynamicGuides" value="0"/>
<vectornator:setting key="SnapToPoints" value="0"/>
<vectornator:setting key="CMYKEnabledKey" value="0"/>
<vectornator:setting key="SnapToGrid" value="0"/>
<vectornator:setting key="SnapToGuides" value="1"/>
<vectornator:setting key="SnapToEdges" value="0"/>
</metadata>
<defs/>
<g id="color" vectornator:layerName="color">
<path d="M126.076+541.295L897.924+541.295C958.035+541.295+1006.76+588.154+1006.76+645.958L1006.76+908.552C1006.76+966.355+958.035+1013.21+897.924+1013.21L126.076+1013.21C65.9648+1013.21+17.235+966.355+17.235+908.552L17.235+645.958C17.235+588.154+65.9648+541.295+126.076+541.295Z" opacity="1" fill="#6d4c41"/>
<text x="0" font-family="Rockwell-Bold" y="0" text-anchor="middle" vectornator:text="api2u&#xA;&#xA;&#xA;" fill="#d8b03d" font-size="250" vectornator:width="807.494" fill-opacity="0.932315" transform="matrix(1.21348 0 0 1.16812 22.0627 645.288)" opacity="1">
<tspan x="406.237" y="170" textLength="763.279">
api2u
</tspan>
</text>
</g>
<g id="Text" vectornator:layerName="Text">
<path d="M241.75+86.3437C241.75+48.9211+278.482+18.584+323.794+18.584C369.107+18.584+405.839+48.9211+405.839+86.3437C405.839+123.766+369.107+154.103+323.794+154.103C278.482+154.103+241.75+123.766+241.75+86.3437Z" opacity="1" fill="#ffb74d"/>
<path d="M624.626+86.3437C624.626+48.9211+661.358+18.584+706.671+18.584C751.983+18.584+788.715+48.9211+788.715+86.3437C788.715+123.766+751.983+154.103+706.671+154.103C661.358+154.103+624.626+123.766+624.626+86.3437Z" opacity="1" fill="#ffb74d"/>
<path d="M661.09+86.3437C661.09+65.5533+681.497+48.6994+706.671+48.6994C731.844+48.6994+752.251+65.5533+752.251+86.3437C752.251+107.134+731.844+123.988+706.671+123.988C681.497+123.988+661.09+107.134+661.09+86.3437Z" opacity="1" fill="#ffccbc"/>
<path d="M278.214+86.3437C278.214+65.5533+298.621+48.6994+323.794+48.6994C348.968+48.6994+369.375+65.5533+369.375+86.3437C369.375+107.134+348.968+123.988+323.794+123.988C298.621+123.988+278.214+107.134+278.214+86.3437Z" opacity="1" fill="#ffccbc"/>
<path d="M606.393+560.661C606.393+544.029+634.963+530.546+670.206+530.546C705.449+530.546+734.019+544.029+734.019+560.661C734.019+577.294+705.449+590.777+670.206+590.777C634.963+590.777+606.393+577.294+606.393+560.661Z" opacity="1" fill="#ffb74d"/>
<path d="M296.446+560.661C296.446+544.029+325.016+530.546+360.259+530.546C395.502+530.546+424.072+544.029+424.072+560.661C424.072+577.294+395.502+590.777+360.259+590.777C325.016+590.777+296.446+577.294+296.446+560.661Z" opacity="1" fill="#ffb74d"/>
<path d="M752.251+288.373C752.251+243.2+752.251+229.392+752.251+229.392L515.233+229.392L278.214+229.392C278.214+229.392+278.214+243.2+278.214+288.373C278.214+333.546+223.517+395.027+223.517+440.2C223.517+500.431+259.982+560.661+387.607+560.661C424.363+560.661+460.536+545.604+515.233+545.604C569.929+545.604+606.102+560.661+642.858+560.661C770.483+560.661+806.948+500.431+806.948+440.2C806.948+395.027+752.251+333.546+752.251+288.373Z" opacity="1" fill="#ffe0b2"/>
<path d="M739.087+148.457C710.846+112.755+673.233+62.4019+588.088+41.7127L588.088+41.7127L588.088+41.7127C567.358+36.6683+543.456+33.6417+515.233+33.6417C487.009+33.6417+463.107+36.6683+442.377+41.7127C357.232+62.417+319.619+112.77+291.378+148.457C266.436+179.988+205.285+214.334+205.285+274.565C205.285+324.466+254.257+364.911+314.678+364.911C355.172+364.911+390.506+346.752+409.431+319.753C418.748+306.457+442.304+259.507+497+259.507C498.24+259.507+514.029+259.613+515.233+259.628C516.436+259.613+532.225+259.507+533.465+259.507C588.161+259.507+611.717+306.457+621.034+319.753C639.959+346.752+675.293+364.911+715.787+364.911C776.208+364.911+825.18+324.466+825.18+274.565C825.18+214.334+764.029+179.988+739.087+148.457Z" opacity="1" fill="#ffb74d"/>
<path d="M278.214+259.507C278.214+242.875+294.54+229.392+314.678+229.392C334.817+229.392+351.143+242.875+351.143+259.507C351.143+276.14+334.817+289.623+314.678+289.623C294.54+289.623+278.214+276.14+278.214+259.507Z" opacity="1" fill="#ffccbc"/>
<path d="M679.322+259.507C679.322+242.875+695.648+229.392+715.787+229.392C735.925+229.392+752.251+242.875+752.251+259.507C752.251+276.14+735.925+289.623+715.787+289.623C695.648+289.623+679.322+276.14+679.322+259.507Z" opacity="1" fill="#ffccbc"/>
<path d="M460.536+206.805C460.536+227.615+440.152+244.45+414.955+244.45C389.759+244.45+369.375+227.615+369.375+206.805C369.375+185.996+389.759+169.161+414.955+169.161C440.152+169.161+460.536+185.996+460.536+206.805Z" opacity="1" fill="#6d4c41"/>
<path d="M424.072+199.276C424.072+207.588+415.904+214.334+405.839+214.334C395.775+214.334+387.607+207.588+387.607+199.276C387.607+190.965+395.775+184.219+405.839+184.219C415.904+184.219+424.072+190.965+424.072+199.276Z" opacity="1" fill="#ffffff"/>
<path d="M661.09+206.805C661.09+227.615+640.706+244.45+615.51+244.45C590.313+244.45+569.929+227.615+569.929+206.805C569.929+185.996+590.313+169.161+615.51+169.161C640.706+169.161+661.09+185.996+661.09+206.805Z" opacity="1" fill="#6d4c41"/>
<path d="M624.626+199.276C624.626+207.588+616.458+214.334+606.393+214.334C596.329+214.334+588.161+207.588+588.161+199.276C588.161+190.965+596.329+184.219+606.393+184.219C616.458+184.219+624.626+190.965+624.626+199.276Z" opacity="1" fill="#ffffff"/>
<path d="M588.088+41.6976C567.358+36.6683+543.456+33.6417+515.233+33.6417C487.009+33.6417+463.107+36.6683+442.377+41.7127C443.252+42.5258+497.146+94.3544+515.233+154.103C533.319+94.3695+587.195+42.5408+588.088+41.6976Z" opacity="1" fill="#f9a825"/>
<path d="M515.233+274.565C515.233+297.152+478.768+304.68+478.768+304.68C478.768+304.68+478.768+319.738+515.233+319.738C551.697+319.738+551.697+304.68+551.697+304.68C551.697+304.68+515.233+297.152+515.233+274.565Z" opacity="1" fill="#8d6e63"/>
<path d="M551.697+259.507C551.697+270.801+533.465+289.623+515.233+289.623C497+289.623+478.768+270.801+478.768+259.507C478.768+248.214+495.086+244.45+515.233+244.45C535.379+244.45+551.697+248.214+551.697+259.507Z" opacity="1" fill="#6d4c41"/>
<path d="M463.945+367.622C454.848+363.707+444.255+364.505+436.214+368.901C435.211+369.459+420.48+377.078+416.542+378.674C407.608+382.288+394.864+386.835+377.634+391.864C375.282+392.542+373.933+393.144+362.775+395.569C345.783+398.159+332.911+410.385+332.911+425.142C332.911+441.781+349.228+455.257+369.375+455.257C424.072+455.257+473.499+401.547+475.887+397.601C482.56+386.564+477.182+373.313+463.945+367.622Z" opacity="1" fill="#ffcc80"/>
<path d="M667.708+395.448C658.811+393.144+655.183+392.422+652.849+391.729C635.601+386.7+622.875+382.122+613.942+378.508C610.003+376.912+595.29+369.278+594.269+368.721C586.229+364.309+575.636+363.511+566.538+367.426C553.283+373.133+547.905+386.399+554.596+397.466C556.948+401.426+606.393+455.257+661.09+455.257C681.237+455.257+697.554+441.751+697.554+425.082C697.554+410.295+684.682+398.038+667.708+395.448Z" opacity="1" fill="#ffcc80"/>
</g>
</svg>
